<mxfile host="Electron" modified="2024-07-22T16:46:55.264Z" agent="Mozilla/5.0 (Windows NT 10.0; Win64; x64) AppleWebKit/537.36 (KHTML, like Gecko) draw.io/24.6.4 Chrome/124.0.6367.207 Electron/30.0.6 Safari/537.36" etag="6tMESKeLlFUP7L_Xdyz8" version="24.6.4" type="device">
  <diagram name="Page-1" id="9361dd3d-8414-5efd-6122-117bd74ce7a7">
    <mxGraphModel dx="558" dy="281" grid="1" gridSize="10" guides="1" tooltips="1" connect="1" arrows="1" fold="1" page="0" pageScale="1.5" pageWidth="826" pageHeight="1169" background="none" math="0" shadow="0">
      <root>
        <mxCell id="0" />
        <mxCell id="1" parent="0" />
        <mxCell id="2" value="" style="fillColor=#CC4125;strokeColor=#660000" parent="1" vertex="1">
          <mxGeometry x="200" y="140" width="10" height="100" as="geometry" />
        </mxCell>
        <mxCell id="3" value="Game()" style="edgeStyle=none;verticalLabelPosition=top;verticalAlign=bottom;labelPosition=left;align=right;entryX=1;entryY=0;entryDx=0;entryDy=0;" parent="1" edge="1" target="2">
          <mxGeometry width="100" height="100" as="geometry">
            <mxPoint x="340" y="140" as="sourcePoint" />
            <mxPoint x="320" y="160" as="targetPoint" />
            <mxPoint as="offset" />
          </mxGeometry>
        </mxCell>
        <mxCell id="4" value="Человек" style="shadow=1;fillColor=#A2C4C9;strokeColor=none" parent="1" vertex="1">
          <mxGeometry x="152.5" y="60" width="105" height="50" as="geometry" />
        </mxCell>
        <mxCell id="6" value="" style="fillColor=#CC4125;strokeColor=#660000" parent="1" vertex="1">
          <mxGeometry x="342.5" y="140" width="10" height="620" as="geometry" />
        </mxCell>
        <mxCell id="7" value="Программа" style="shadow=1;fillColor=#A2C4C9;strokeColor=none" parent="1" vertex="1">
          <mxGeometry x="295" y="60" width="105" height="50" as="geometry" />
        </mxCell>
        <mxCell id="8" value="" style="edgeStyle=none;endArrow=none;dashed=1" parent="1" source="7" target="6" edge="1">
          <mxGeometry x="272.3350694444445" y="165" width="100" height="100" as="geometry">
            <mxPoint x="347.2588734567901" y="110" as="sourcePoint" />
            <mxPoint x="347.5761959876544" y="165" as="targetPoint" />
          </mxGeometry>
        </mxCell>
        <mxCell id="12" value="" style="edgeStyle=none;verticalLabelPosition=top;verticalAlign=bottom;labelPosition=left;align=right;endArrow=none;startArrow=classic;dashed=1;entryX=1;entryY=1;entryDx=0;entryDy=0;" parent="1" edge="1" target="2">
          <mxGeometry x="110" y="179.75887345679013" width="100" height="100" as="geometry">
            <mxPoint x="344" y="240" as="sourcePoint" />
            <mxPoint x="305" y="249.99887345679014" as="targetPoint" />
          </mxGeometry>
        </mxCell>
        <mxCell id="13" value="&lt;&lt;create&gt;&gt;" style="edgeStyle=none;verticalLabelPosition=top;verticalAlign=bottom;dashed=1" parent="1" edge="1">
          <mxGeometry x="385.45524691358025" y="113.91550925925924" width="100" height="100" as="geometry">
            <mxPoint x="352.5" y="189.65563271604935" as="sourcePoint" />
            <mxPoint x="462.5" y="189.65563271604935" as="targetPoint" />
          </mxGeometry>
        </mxCell>
        <mxCell id="15" value="Tamagochi" style="shadow=1;fillColor=#A2C4C9;strokeColor=none" parent="1" vertex="1">
          <mxGeometry x="462.2839506172839" y="164.99999999999997" width="105" height="50" as="geometry" />
        </mxCell>
        <mxCell id="16" value="" style="edgeStyle=none;endArrow=none" parent="1" source="15" target="17" edge="1">
          <mxGeometry x="437.042824074074" y="270" width="100" height="100" as="geometry">
            <mxPoint x="514.542824074074" y="219.99999999999997" as="sourcePoint" />
            <mxPoint x="514.542824074074" y="239.99999999999997" as="targetPoint" />
          </mxGeometry>
        </mxCell>
        <mxCell id="17" value="" style="fillColor=#CC4125;strokeColor=#660000" parent="1" vertex="1">
          <mxGeometry x="509.78" y="269.39" width="10" height="140.61" as="geometry" />
        </mxCell>
        <mxCell id="33" value="" style="edgeStyle=elbowEdgeStyle;elbow=horizontal;endArrow=none;dashed=1" parent="1" source="4" target="2" edge="1">
          <mxGeometry x="230.00000000000003" y="310" width="100" height="100" as="geometry">
            <mxPoint x="230.00000000000003" y="410" as="sourcePoint" />
            <mxPoint x="330" y="310" as="targetPoint" />
          </mxGeometry>
        </mxCell>
        <mxCell id="42" value="" style="fillColor=#CC4125;strokeColor=#660000" parent="1" vertex="1">
          <mxGeometry x="200" y="269.39" width="10" height="130.61" as="geometry" />
        </mxCell>
        <mxCell id="43" value="             choose_type()" style="edgeStyle=elbowEdgeStyle;elbow=vertical;dashed=0;verticalLabelPosition=top;verticalAlign=bottom;align=right;entryX=1;entryY=0;entryDx=0;entryDy=0;exitX=0;exitY=0;exitDx=0;exitDy=0;" parent="1" source="17" target="42" edge="1">
          <mxGeometry width="100" height="100" as="geometry">
            <mxPoint x="519.7839506172838" y="309.10857142857145" as="sourcePoint" />
            <mxPoint x="220" y="309.10857142857145" as="targetPoint" />
            <Array as="points">
              <mxPoint x="440" y="270" />
            </Array>
            <mxPoint x="-50" y="-9" as="offset" />
          </mxGeometry>
        </mxCell>
        <mxCell id="44" value="" style="edgeStyle=none;dashed=1;endArrow=none" parent="1" source="2" target="42" edge="1">
          <mxGeometry x="50" y="300" width="100" height="100" as="geometry">
            <mxPoint x="50" y="400" as="sourcePoint" />
            <mxPoint x="150" y="300" as="targetPoint" />
          </mxGeometry>
        </mxCell>
        <mxCell id="49" value="" style="fillColor=#CC4125;strokeColor=#660000" parent="1" vertex="1">
          <mxGeometry x="509.78" y="450" width="10" height="100" as="geometry" />
        </mxCell>
        <mxCell id="67" value="" style="edgeStyle=elbowEdgeStyle;elbow=horizontal;dashed=1;verticalLabelPosition=bottom;verticalAlign=top;exitX=1;exitY=1;exitDx=0;exitDy=0;" parent="1" edge="1" source="42">
          <mxGeometry x="507.50000000000006" y="664.3418209876543" width="100" height="100" as="geometry">
            <mxPoint x="372.5" y="390.21000000000004" as="sourcePoint" />
            <mxPoint x="340" y="399" as="targetPoint" />
            <Array as="points" />
          </mxGeometry>
        </mxCell>
        <mxCell id="zyxhz4ipocHcVfiMhmXc-101" value="&quot;return&quot;" style="edgeLabel;html=1;align=center;verticalAlign=middle;resizable=0;points=[];" vertex="1" connectable="0" parent="67">
          <mxGeometry relative="1" as="geometry">
            <mxPoint x="-50" y="-20" as="offset" />
          </mxGeometry>
        </mxCell>
        <mxCell id="71" value="Tamagochi" style="rounded=1;fontStyle=1;fillColor=#FFD966;strokeColor=none" parent="1" vertex="1">
          <mxGeometry x="50" y="20" width="150" height="30" as="geometry" />
        </mxCell>
        <mxCell id="zyxhz4ipocHcVfiMhmXc-97" value="&quot;return&quot;" style="text;html=1;align=center;verticalAlign=middle;resizable=0;points=[];autosize=1;strokeColor=none;fillColor=none;" vertex="1" parent="1">
          <mxGeometry x="240" y="214.39" width="60" height="30" as="geometry" />
        </mxCell>
        <mxCell id="zyxhz4ipocHcVfiMhmXc-108" value="" style="fillColor=#CC4125;strokeColor=#660000" vertex="1" parent="1">
          <mxGeometry x="200" y="470" width="10" height="80" as="geometry" />
        </mxCell>
        <mxCell id="zyxhz4ipocHcVfiMhmXc-109" value="" style="edgeStyle=elbowEdgeStyle;elbow=horizontal;dashed=1;verticalLabelPosition=bottom;verticalAlign=top;exitX=0.964;exitY=0.435;exitDx=0;exitDy=0;exitPerimeter=0;entryX=0;entryY=1;entryDx=0;entryDy=0;" edge="1" parent="1" source="6" target="17">
          <mxGeometry x="507.50000000000006" y="664.3418209876543" width="100" height="100" as="geometry">
            <mxPoint x="379.78" y="400" as="sourcePoint" />
            <mxPoint x="509.78" y="399" as="targetPoint" />
            <Array as="points" />
          </mxGeometry>
        </mxCell>
        <mxCell id="zyxhz4ipocHcVfiMhmXc-110" value="&quot;return&quot;" style="edgeLabel;html=1;align=center;verticalAlign=middle;resizable=0;points=[];" vertex="1" connectable="0" parent="zyxhz4ipocHcVfiMhmXc-109">
          <mxGeometry relative="1" as="geometry">
            <mxPoint x="-50" y="-20" as="offset" />
          </mxGeometry>
        </mxCell>
        <mxCell id="zyxhz4ipocHcVfiMhmXc-113" value="" style="edgeStyle=elbowEdgeStyle;elbow=horizontal;dashed=1;verticalLabelPosition=bottom;verticalAlign=top;exitX=1;exitY=1;exitDx=0;exitDy=0;entryX=0;entryY=1;entryDx=0;entryDy=0;" edge="1" parent="1" source="zyxhz4ipocHcVfiMhmXc-108" target="49">
          <mxGeometry x="507.50000000000006" y="664.3418209876543" width="100" height="100" as="geometry">
            <mxPoint x="230" y="513.08" as="sourcePoint" />
            <mxPoint x="360" y="512.08" as="targetPoint" />
            <Array as="points" />
          </mxGeometry>
        </mxCell>
        <mxCell id="zyxhz4ipocHcVfiMhmXc-114" value="&quot;return&quot;" style="edgeLabel;html=1;align=center;verticalAlign=middle;resizable=0;points=[];" vertex="1" connectable="0" parent="zyxhz4ipocHcVfiMhmXc-113">
          <mxGeometry relative="1" as="geometry">
            <mxPoint x="-110" y="-8" as="offset" />
          </mxGeometry>
        </mxCell>
        <mxCell id="zyxhz4ipocHcVfiMhmXc-115" value="             choose_yummy()" style="edgeStyle=elbowEdgeStyle;elbow=vertical;dashed=0;verticalLabelPosition=top;verticalAlign=bottom;align=right;entryX=1;entryY=0;entryDx=0;entryDy=0;exitX=-0.064;exitY=0.532;exitDx=0;exitDy=0;exitPerimeter=0;" edge="1" parent="1" source="6" target="zyxhz4ipocHcVfiMhmXc-108">
          <mxGeometry width="100" height="100" as="geometry">
            <mxPoint x="342" y="440" as="sourcePoint" />
            <mxPoint x="100" y="430" as="targetPoint" />
            <Array as="points" />
            <mxPoint x="-50" y="-9" as="offset" />
          </mxGeometry>
        </mxCell>
        <mxCell id="zyxhz4ipocHcVfiMhmXc-117" value="             hungry()" style="edgeStyle=elbowEdgeStyle;elbow=vertical;dashed=0;verticalLabelPosition=top;verticalAlign=bottom;align=right;exitX=0;exitY=0;exitDx=0;exitDy=0;entryX=1;entryY=0.5;entryDx=0;entryDy=0;" edge="1" parent="1" source="49" target="6">
          <mxGeometry width="100" height="100" as="geometry">
            <mxPoint x="470" y="430" as="sourcePoint" />
            <mxPoint x="350" y="420" as="targetPoint" />
            <Array as="points">
              <mxPoint x="430" y="450" />
            </Array>
            <mxPoint x="9" y="-10" as="offset" />
          </mxGeometry>
        </mxCell>
        <mxCell id="zyxhz4ipocHcVfiMhmXc-119" value="" style="endArrow=none;html=1;rounded=0;exitX=0.5;exitY=0;exitDx=0;exitDy=0;" edge="1" parent="1" source="zyxhz4ipocHcVfiMhmXc-108">
          <mxGeometry width="50" height="50" relative="1" as="geometry">
            <mxPoint x="190" y="470" as="sourcePoint" />
            <mxPoint x="205" y="400" as="targetPoint" />
          </mxGeometry>
        </mxCell>
        <mxCell id="zyxhz4ipocHcVfiMhmXc-120" value="" style="endArrow=none;html=1;rounded=0;entryX=0.5;entryY=1;entryDx=0;entryDy=0;exitX=0.5;exitY=0;exitDx=0;exitDy=0;" edge="1" parent="1" source="49" target="17">
          <mxGeometry width="50" height="50" relative="1" as="geometry">
            <mxPoint x="610" y="450" as="sourcePoint" />
            <mxPoint x="660" y="400" as="targetPoint" />
          </mxGeometry>
        </mxCell>
        <mxCell id="zyxhz4ipocHcVfiMhmXc-121" value="" style="fillColor=#CC4125;strokeColor=#660000" vertex="1" parent="1">
          <mxGeometry x="509.78" y="580" width="10" height="100" as="geometry" />
        </mxCell>
        <mxCell id="zyxhz4ipocHcVfiMhmXc-124" value="RIP()" style="edgeStyle=elbowEdgeStyle;elbow=vertical;dashed=0;verticalLabelPosition=top;verticalAlign=bottom;align=right;exitX=0.25;exitY=0;exitDx=0;exitDy=0;entryX=1.021;entryY=0.711;entryDx=0;entryDy=0;entryPerimeter=0;" edge="1" parent="1" source="zyxhz4ipocHcVfiMhmXc-121" target="6">
          <mxGeometry width="100" height="100" as="geometry">
            <mxPoint x="450" y="600" as="sourcePoint" />
            <mxPoint x="350" y="583" as="targetPoint" />
            <Array as="points">
              <mxPoint x="430" y="580" />
            </Array>
            <mxPoint x="-2" y="-10" as="offset" />
          </mxGeometry>
        </mxCell>
        <mxCell id="zyxhz4ipocHcVfiMhmXc-125" value="" style="shape=umlDestroy;whiteSpace=wrap;html=1;strokeWidth=3;targetShapes=umlLifeline;" vertex="1" parent="1">
          <mxGeometry x="499.78" y="710" width="30" height="30" as="geometry" />
        </mxCell>
        <mxCell id="zyxhz4ipocHcVfiMhmXc-127" value="" style="endArrow=none;html=1;rounded=0;entryX=0.5;entryY=1;entryDx=0;entryDy=0;exitX=0.507;exitY=0.457;exitDx=0;exitDy=0;exitPerimeter=0;" edge="1" parent="1" source="zyxhz4ipocHcVfiMhmXc-125" target="zyxhz4ipocHcVfiMhmXc-121">
          <mxGeometry width="50" height="50" relative="1" as="geometry">
            <mxPoint x="570" y="750" as="sourcePoint" />
            <mxPoint x="620" y="700" as="targetPoint" />
          </mxGeometry>
        </mxCell>
        <mxCell id="zyxhz4ipocHcVfiMhmXc-130" value="" style="edgeStyle=elbowEdgeStyle;elbow=horizontal;dashed=1;verticalLabelPosition=bottom;verticalAlign=top;entryX=1;entryY=0;entryDx=0;entryDy=0;" edge="1" parent="1" target="zyxhz4ipocHcVfiMhmXc-135">
          <mxGeometry x="507.50000000000006" y="664.3418209876543" width="100" height="100" as="geometry">
            <mxPoint x="340" y="600" as="sourcePoint" />
            <mxPoint x="221.79" y="590.84" as="targetPoint" />
            <Array as="points" />
          </mxGeometry>
        </mxCell>
        <mxCell id="zyxhz4ipocHcVfiMhmXc-132" value="message()" style="edgeLabel;html=1;align=center;verticalAlign=middle;resizable=0;points=[];" vertex="1" connectable="0" parent="zyxhz4ipocHcVfiMhmXc-130">
          <mxGeometry relative="1" as="geometry">
            <mxPoint x="-5" y="-10" as="offset" />
          </mxGeometry>
        </mxCell>
        <mxCell id="zyxhz4ipocHcVfiMhmXc-135" value="" style="fillColor=#CC4125;strokeColor=#660000" vertex="1" parent="1">
          <mxGeometry x="200" y="600" width="10" height="160" as="geometry" />
        </mxCell>
        <mxCell id="zyxhz4ipocHcVfiMhmXc-136" value="" style="shape=umlDestroy;whiteSpace=wrap;html=1;strokeWidth=3;targetShapes=umlLifeline;" vertex="1" parent="1">
          <mxGeometry x="190" y="790" width="30" height="30" as="geometry" />
        </mxCell>
        <mxCell id="zyxhz4ipocHcVfiMhmXc-137" value="" style="shape=umlDestroy;whiteSpace=wrap;html=1;strokeWidth=3;targetShapes=umlLifeline;" vertex="1" parent="1">
          <mxGeometry x="332.5" y="790" width="30" height="30" as="geometry" />
        </mxCell>
        <mxCell id="zyxhz4ipocHcVfiMhmXc-138" value="" style="endArrow=none;html=1;rounded=0;exitX=0.502;exitY=0.552;exitDx=0;exitDy=0;exitPerimeter=0;entryX=0.5;entryY=1;entryDx=0;entryDy=0;" edge="1" parent="1" source="zyxhz4ipocHcVfiMhmXc-137" target="6">
          <mxGeometry width="50" height="50" relative="1" as="geometry">
            <mxPoint x="420" y="830" as="sourcePoint" />
            <mxPoint x="350" y="760" as="targetPoint" />
          </mxGeometry>
        </mxCell>
        <mxCell id="zyxhz4ipocHcVfiMhmXc-139" value="" style="endArrow=none;html=1;rounded=0;entryX=0.5;entryY=1;entryDx=0;entryDy=0;exitX=0.475;exitY=0.459;exitDx=0;exitDy=0;exitPerimeter=0;" edge="1" parent="1" source="zyxhz4ipocHcVfiMhmXc-136" target="zyxhz4ipocHcVfiMhmXc-135">
          <mxGeometry width="50" height="50" relative="1" as="geometry">
            <mxPoint x="120" y="810" as="sourcePoint" />
            <mxPoint x="170" y="760" as="targetPoint" />
          </mxGeometry>
        </mxCell>
      </root>
    </mxGraphModel>
  </diagram>
</mxfile>
